<?xml version="1.0" standalone="no"?>
<!DOCTYPE svg PUBLIC "-//W3C//DTD SVG 20010904//EN"
 "http://www.w3.org/TR/2001/REC-SVG-20010904/DTD/svg10.dtd">
<svg version="1.0" xmlns="http://www.w3.org/2000/svg"
 width="679.000000pt" height="177.000000pt" viewBox="0 0 679.000000 177.000000"
 preserveAspectRatio="xMidYMid meet">

<g transform="translate(0.000000,177.000000) scale(0.100000,-0.100000)"
fill="#000000" stroke="none">
<path d="M735 1725 c-330 -73 -578 -316 -656 -643 -18 -73 -20 -109 -16 -222
3 -80 11 -159 21 -195 64 -230 232 -432 451 -543 220 -111 508 -113 734 -6
195 92 354 260 435 460 68 166 75 399 18 574 -43 132 -108 237 -206 335 -128
128 -266 205 -436 241 -81 17 -265 17 -345 -1z m523 -557 l3 -58 -131 0 -130
0 0 -330 0 -330 -70 0 -70 0 0 330 0 330 -125 0 -125 0 0 60 0 60 323 -2 322
-3 3 -57z"/>
<path d="M4000 1212 c-50 -25 -77 -71 -85 -147 l-7 -65 -44 0 -44 0 0 -45 0
-45 45 0 45 0 2 -207 3 -208 60 0 60 0 3 208 2 207 55 0 55 0 0 45 0 45 -55 0
-55 0 0 45 c0 61 24 85 85 85 l45 0 0 44 c0 31 -5 46 -16 50 -32 12 -120 6
-154 -12z"/>
<path d="M4862 863 l3 -368 60 0 60 0 3 368 2 367 -65 0 -65 0 2 -367z"/>
<path d="M2280 1150 l0 -50 115 0 115 0 2 -302 3 -303 63 -3 62 -3 0 306 0
305 115 0 115 0 0 50 0 50 -295 0 -295 0 0 -50z"/>
<path d="M3074 991 c-22 -10 -50 -34 -62 -52 l-22 -34 0 32 c0 57 -7 63 -67
63 l-56 0 7 -37 c3 -21 6 -136 6 -255 l0 -218 60 0 60 0 0 160 c0 180 7 208
62 236 22 11 48 15 85 12 l53 -5 0 53 c0 38 -4 53 -16 58 -28 11 -68 6 -110
-13z"/>
<path d="M3385 998 c-53 -19 -93 -56 -122 -115 -23 -49 -28 -70 -28 -138 0
-147 72 -243 190 -253 78 -6 120 4 160 42 l35 33 0 -38 0 -39 60 0 60 0 0 255
0 255 -60 0 -60 0 0 -37 0 -37 -27 27 c-55 52 -137 70 -208 45z m175 -107 c38
-26 60 -78 60 -141 -1 -113 -57 -177 -147 -167 -77 8 -115 63 -115 163 1 70
23 128 55 146 56 30 102 30 147 -1z"/>
<path d="M4360 994 c-89 -38 -140 -127 -140 -243 0 -90 14 -139 52 -186 42
-50 96 -75 163 -75 63 0 111 17 140 50 l20 22 5 -33 c5 -34 6 -34 63 -37 l57
-3 0 256 0 256 -57 -3 c-57 -3 -58 -4 -61 -34 l-3 -31 -30 28 c-52 48 -142 62
-209 33z m187 -101 c35 -23 53 -74 53 -150 0 -50 -5 -77 -20 -100 -53 -87
-180 -82 -223 10 -33 69 -17 188 31 230 40 37 111 41 159 10z"/>
<path d="M5249 996 c-106 -38 -157 -129 -147 -265 9 -123 82 -209 188 -219 73
-7 112 4 160 45 l42 37 -3 -81 c-4 -69 -8 -85 -28 -107 -48 -51 -135 -57 -242
-16 -27 10 -49 15 -49 12 0 -4 -4 -24 -9 -45 l-9 -39 46 -21 c39 -18 66 -22
152 -22 113 0 159 15 207 67 47 51 53 91 53 384 l0 274 -60 0 -60 0 0 -37 0
-37 -27 27 c-56 53 -139 70 -214 43z m181 -105 c84 -58 78 -210 -10 -269 -65
-44 -153 -13 -186 65 -28 64 -12 156 34 196 42 38 113 41 162 8z"/>
<path d="M5875 998 c-53 -19 -93 -56 -122 -115 -23 -49 -28 -70 -28 -138 0
-147 72 -243 190 -253 78 -6 120 4 160 42 l35 33 0 -38 0 -39 60 0 60 0 0 255
0 255 -60 0 -60 0 0 -37 0 -37 -27 27 c-55 52 -137 70 -208 45z m175 -107 c38
-26 60 -78 60 -141 -1 -113 -57 -177 -147 -167 -76 8 -115 64 -115 162 0 69
22 129 55 147 56 30 102 30 147 -1z"/>
<path d="M6584 999 c-18 -5 -46 -25 -63 -44 -17 -19 -33 -35 -36 -35 -3 0 -5
18 -5 40 l0 40 -61 0 c-52 0 -60 -2 -55 -16 3 -9 6 -123 6 -255 l0 -239 59 0
59 0 4 168 c3 182 8 198 63 228 21 11 48 15 83 13 l53 -4 -3 55 -3 55 -35 2
c-19 1 -49 -3 -66 -8z"/>
</g>
</svg>
