<?xml version="1.0" encoding="utf-8"?><svg xmlns="http://www.w3.org/2000/svg" xmlns:xlink="http://www.w3.org/1999/xlink"><symbol fill="none" viewBox="0 0 30 30" id="closingMenu" xmlns="http://www.w3.org/2000/svg"><path d="M29 29L1 1m0 28L29 1 1 29z" stroke="#fff" stroke-width="2" stroke-linecap="round" stroke-linejoin="round"/></symbol><symbol fill="none" viewBox="0 0 20 20" id="logo" xmlns="http://www.w3.org/2000/svg"><path fill-rule="evenodd" clip-rule="evenodd" d="M17.65.009V0h1.7V2.993c.04 2.534-.207 5.065-1.113 6.994-.46.978-1.103 1.83-1.989 2.434a5.12 5.12 0 01-1.362.657L19.366 20H17.34l-4.303-6.65H4.35V20h-1.7V13.35H0v-1.7H2.65V5.5c0-1.206.411-2.073 1.031-2.632A2.786 2.786 0 015.5 2.15h12.15V.008zm.002 3.841H5.5c-.153 0-.441.066-.681.282-.213.191-.469.574-.469 1.368V11.65H13c.976 0 1.716-.242 2.29-.633.58-.396 1.045-.982 1.408-1.754.654-1.39.927-3.286.954-5.413z" fill="#000"/></symbol><symbol fill="none" viewBox="0 0 27 19" id="openingMenu" xmlns="http://www.w3.org/2000/svg"><path d="M1 1h25M1 9h25M1 18h25" stroke="#313133" stroke-width="2" stroke-linecap="round" stroke-linejoin="round"/></symbol><symbol viewBox="0 0 24 27" id="search" xmlns="http://www.w3.org/2000/svg"><path d="M23.713 24.824l-5.696-5.795a10.921 10.921 0 003.034-7.558C21.05 5.55 16.345.764 10.525.764 4.705.764 0 5.55 0 11.47c0 5.92 4.705 10.707 10.525 10.707 2.23 0 4.334-.756 6.068-1.952l5.82 5.92c.186.19.433.252.681.252.248 0 .495-.063.681-.252a.986.986 0 00-.062-1.322zM1.857 11.47c0-4.85 3.901-8.818 8.668-8.818 4.768 0 8.668 3.968 8.668 8.818s-3.9 8.818-8.668 8.818c-4.767 0-8.668-3.968-8.668-8.818z"/></symbol><symbol viewBox="0 0 92 108" id="shop" xmlns="http://www.w3.org/2000/svg"><path d="M38.4.9c-4.8 1.2-9.2 4.3-12 8.2-2.8 4.1-5.4 11.7-5.4 16.1V28h-7.4c-4.9 0-7.7.4-8.5 1.3-1.5 1.8-5.2 74.5-4 77 .9 1.6 4.1 1.7 44.4 1.7 38.3 0 43.5-.2 44.9-1.6 1.3-1.3 1.5-3.1 1.1-9.2-.3-4.3-1.2-20.9-2-37.1-.9-18.2-1.9-29.9-2.6-30.7-.8-1-3.5-1.4-8.4-1.4h-7.2l-.6-5.3C69.1 9.3 61 1.3 48.4.5c-3.8-.2-8.3-.1-10 .4zm15.3 6.2c6 2.3 9.5 7.3 11.1 15.7l.9 5.2H26.3l.8-4.3c1.6-8.9 4.7-13.8 10.4-16.3 3.6-1.6 12.3-1.8 16.2-.3zM20 39c0 4.9.1 5 3 5s3-.1 3-5v-5h40v5c0 4.9.1 5 3 5s3-.1 3-5v-5h5c6 0 5.5-2.3 7 32 .6 14 1.3 27.9 1.6 30.7l.5 5.3H5.9l.5-5.3C6.7 93.9 7.4 80 8 66c1.5-34.3 1-32 7-32h5v5z"/></symbol><symbol fill="none" viewBox="0 0 90 4" id="stripe" xmlns="http://www.w3.org/2000/svg"><path fill="#303032" d="M0 0h90v4H0z"/></symbol></svg>